HIERARCHY
ROOT Hips
{
	OFFSET 0.000000 0.000000 0.000000
	CHANNELS 6 Xposition Yposition Zposition Zrotation Yrotation Xrotation 
	JOINT LHipJoint
	{
		OFFSET 0.000000 0.000000 0.000000
		CHANNELS 3 Zrotation Yrotation Xrotation
		JOINT LeftUpLeg
		{
			OFFSET 1.363060 -1.794630 0.839290
			CHANNELS 3 Zrotation Yrotation Xrotation
			JOINT LeftLeg
			{
				OFFSET 2.448110 -6.726130 0.000000
				CHANNELS 3 Zrotation Yrotation Xrotation
				JOINT LeftFoot
				{
					OFFSET 2.562200 -7.039590 0.000000
					CHANNELS 3 Zrotation Yrotation Xrotation
					JOINT LeftToeBase
					{
						OFFSET 0.157640 -0.433110 2.322550
						CHANNELS 3 Zrotation Yrotation Xrotation
						End Site
						{
							OFFSET 0.000000 0.000000 0.000000
						}
					}
				}
			}
		}
	}
	JOINT RHipJoint
	{
		OFFSET 0.000000 0.000000 0.000000
		CHANNELS 3 Zrotation Yrotation Xrotation
		JOINT RightUpLeg
		{
			OFFSET -1.305520 -1.794630 0.839290
			CHANNELS 3 Zrotation Yrotation Xrotation
			JOINT RightLeg
			{
				OFFSET -2.542530 -6.985550 0.000000
				CHANNELS 3 Zrotation Yrotation Xrotation
				JOINT RightFoot
				{
					OFFSET -2.568260 -7.056230 0.000000
					CHANNELS 3 Zrotation Yrotation Xrotation
					JOINT RightToeBase
					{
						OFFSET -0.164730 -0.452590 2.363150
						CHANNELS 3 Zrotation Yrotation Xrotation
						End Site
						{
							OFFSET 0.000000 0.000000 0.000000
						}
					}
				}
			}
		}
	}
	JOINT LowerBack
	{
		OFFSET 0.000000 0.000000 0.000000
		CHANNELS 3 Zrotation Yrotation Xrotation
		JOINT Spine
		{
			OFFSET 0.028270 2.035590 -0.193380
			CHANNELS 3 Zrotation Yrotation Xrotation
			JOINT Spine1
			{
				OFFSET 0.056720 2.048850 -0.042750
				CHANNELS 3 Zrotation Yrotation Xrotation
				JOINT Neck
				{
					OFFSET 0.000000 0.000000 0.000000
					CHANNELS 3 Zrotation Yrotation Xrotation
					JOINT Neck1
					{
						OFFSET -0.054170 1.746240 0.172020
						CHANNELS 3 Zrotation Yrotation Xrotation
						JOINT Head
						{
							OFFSET 0.104070 1.761360 -0.123970
							CHANNELS 3 Zrotation Yrotation Xrotation
							End Site
							{
								OFFSET 0.000000 0.000000 0.000000
							}
						}
					}
				}
				JOINT LeftShoulder
				{
					OFFSET 0.000000 0.000000 0.000000
					CHANNELS 3 Zrotation Yrotation Xrotation
					JOINT LeftArm
					{
						OFFSET 3.362410 1.200890 -0.311210
						CHANNELS 3 Zrotation Yrotation Xrotation
						JOINT LeftForeArm
						{
							OFFSET 4.983000 -0.000000 -0.000000
							CHANNELS 3 Zrotation Yrotation Xrotation
							JOINT LeftHand
							{
								OFFSET 3.483560 -0.000000 -0.000000
								CHANNELS 3 Zrotation Yrotation Xrotation
								JOINT LeftFingerBase
								{
									OFFSET 0.000000 0.000000 0.000000
									CHANNELS 3 Zrotation Yrotation Xrotation
									JOINT LeftHandIndex1
									{
										OFFSET 0.715260 -0.000000 -0.000000
										CHANNELS 3 Zrotation Yrotation Xrotation
										End Site
										{
											OFFSET 0.000000 0.000000 0.000000
										}
									}
								}
								JOINT LThumb
								{
									OFFSET 0.000000 0.000000 0.000000
									CHANNELS 3 Zrotation Yrotation Xrotation
									End Site
									{
										OFFSET 0.000000 0.000000 0.000000
									}
								}
							}
						}
					}
				}
				JOINT RightShoulder
				{
					OFFSET 0.000000 0.000000 0.000000
					CHANNELS 3 Zrotation Yrotation Xrotation
					JOINT RightArm
					{
						OFFSET -3.136600 1.374050 -0.404650
						CHANNELS 3 Zrotation Yrotation Xrotation
						JOINT RightForeArm
						{
							OFFSET -5.241900 -0.000000 -0.000000
							CHANNELS 3 Zrotation Yrotation Xrotation
							JOINT RightHand
							{
								OFFSET -3.444170 -0.000000 -0.000000
								CHANNELS 3 Zrotation Yrotation Xrotation
								JOINT RightFingerBase
								{
									OFFSET 0.000000 0.000000 0.000000
									CHANNELS 3 Zrotation Yrotation Xrotation
									JOINT RightHandIndex1
									{
										OFFSET -0.622530 -0.000000 -0.000000
										CHANNELS 3 Zrotation Yrotation Xrotation
										End Site
										{
											OFFSET 0.000000 0.000000 0.000000
										}
									}
								}
								JOINT RThumb
								{
									OFFSET 0.000000 0.000000 0.000000
									CHANNELS 3 Zrotation Yrotation Xrotation
									End Site
									{
										OFFSET 0.000000 0.000000 0.000000
									}
								}
							}
						}
					}
				}
			}
		}
	}
}
MOTION
Frames: 12
Frame Time: 0.008333
0.122378 16.440567 0.211692 -0.344408 4.930955 -1.972494 3.997186 6.777029 5.049136 -17.234672 -1.798924 -29.106614 8.158226 14.824063 53.667078 2.749860 -9.340987 -10.052059 1.573400 -7.914500 -22.454700 -4.067493 -7.446935 5.087943 19.978311 -5.130375 -32.536778 -9.085255 -15.798952 57.298808 -2.031619 8.360968 -13.471015 -0.314200 3.603300 -9.963300 4.030582 4.495834 10.922160 9.409703 4.149873 28.806754 -1.785320 4.472648 -9.104485 -1.847736 7.047191 -19.258801 -7.911246 11.769340 4.961430 -2.775600 5.538800 3.124900 -10.151055 -2.652071 -0.720108 -33.942820 -0.154260 23.793298 64.496249 -56.868105 -34.081806 0.033612 0.348841 -19.079941 2.040716 13.842190 0.443400 -7.125000 0.000000 0.000000 -22.720900 42.311900 1.597700 10.612689 5.962004 1.303305 31.289634 10.232114 41.207231 -86.174389 55.625476 -52.309803 -0.484784 1.407383 -25.659613 7.053750 7.663531 0.744200 7.125000 0.000000 0.000000 24.247000 -23.693300 13.685200 
0.113104 16.440265 0.216530 -0.378317 4.941874 -2.082185 3.985523 6.786332 5.057164 -17.135827 -1.826326 -28.995527 8.161166 14.822205 53.674176 2.741224 -9.274563 -10.068543 1.608900 -7.999000 -22.711000 -4.064571 -7.460531 5.090568 20.037707 -5.127641 -32.377585 -9.080743 -15.771366 57.279023 -2.030693 8.258601 -13.559835 -0.337900 3.735500 -10.333800 3.952916 4.481464 10.961892 9.281769 4.144751 28.829092 -1.754767 4.456449 -9.153907 -1.902600 7.048416 -19.358886 -7.823496 11.786584 5.023594 -2.738700 5.546100 3.145700 -10.124046 -2.650238 -0.740923 -33.828313 -0.581839 23.344720 64.183980 -56.814288 -33.824080 0.023711 0.365944 -18.918237 1.996470 14.034949 0.439600 -7.125000 0.000000 0.000000 -22.816600 42.467400 1.512200 10.609151 5.950224 1.315393 31.721612 9.964656 41.104639 -85.348506 55.641937 -51.488184 -0.495035 1.402779 -25.103040 6.972810 7.817198 0.756200 7.125000 0.000000 0.000000 24.181100 -23.555500 13.726300 
0.104434 16.437845 0.222679 -0.449085 4.886430 -2.152580 3.978074 6.794638 5.062241 -17.000267 -1.775701 -28.956083 8.166061 14.830195 53.682811 2.749566 -9.307224 -10.065865 1.612000 -8.006300 -22.733400 -4.063658 -7.466534 5.093759 20.143787 -5.058305 -32.234913 -9.073833 -15.740037 57.252435 -2.029504 8.197064 -13.614730 -0.337500 3.733100 -10.326900 3.905227 4.483284 10.916603 9.161440 4.158422 28.867498 -1.726210 4.452874 -9.130078 -1.911703 7.031676 -19.518754 -7.795306 11.794776 5.120676 -2.719200 5.545800 3.190000 -10.103554 -2.645818 -0.761245 -33.638619 -1.001869 22.971110 64.037215 -56.793050 -33.704022 0.004384 0.398939 -18.892031 1.991654 14.520558 0.454400 -7.125000 0.000000 0.000000 -22.978000 42.880200 1.275100 10.603059 5.947876 1.330019 32.062320 9.709719 40.998042 -84.648556 55.651170 -50.792935 -0.510916 1.392833 -24.649328 6.761951 7.947050 0.751300 7.125000 0.000000 0.000000 24.034800 -23.439500 13.698300 
0.095664 16.440668 0.230341 -0.514238 4.869352 -2.216487 3.965913 6.803953 5.070888 -16.861931 -1.784027 -28.868161 8.165486 14.828015 53.665303 2.768545 -9.421969 -10.027398 1.576700 -7.922400 -22.478600 -4.061546 -7.473231 5.095375 20.245623 -5.016764 -32.089280 -9.059644 -15.704034 57.200934 -2.027483 8.140053 -13.651821 -0.328000 3.681100 -10.181200 3.867979 4.474633 10.834208 9.012147 4.165281 28.911726 -1.705736 4.443605 -9.091299 -1.954545 6.984712 -19.696611 -7.671260 11.757135 5.260137 -2.673900 5.524300 3.238900 -10.078168 -2.646134 -0.780597 -33.416861 -1.377859 22.592101 63.879989 -56.768559 -33.574550 -0.019983 0.414393 -18.702049 1.752550 14.830075 0.408600 -7.125000 0.000000 0.000000 -23.271700 43.120500 1.146400 10.602354 5.941655 1.342699 32.394648 9.470917 40.894176 -84.041143 55.655730 -50.193163 -0.512556 1.375666 -24.322948 6.637093 7.832457 0.727600 7.125000 0.000000 0.000000 23.980800 -23.534200 13.602900 
0.086491 16.445809 0.238103 -0.575644 4.855956 -2.287495 3.950960 6.813917 5.081128 -16.726718 -1.829570 -28.743901 8.162991 14.820003 53.638339 2.790374 -9.563746 -9.974129 1.480800 -7.688500 -21.772000 -4.057911 -7.481339 5.097371 20.343098 -4.977560 -31.915727 -9.044243 -15.661982 57.138040 -2.028643 8.156506 -13.639449 -0.290500 3.465800 -9.578300 3.836937 4.468433 10.771588 8.852836 4.180284 28.931343 -1.692465 4.433870 -9.075143 -1.898394 6.940737 -19.748071 -7.676434 11.699199 5.312274 -2.680500 5.493900 3.257800 -10.056843 -2.645107 -0.801484 -33.173073 -1.720795 22.286252 63.710421 -56.738890 -33.432990 -0.033001 0.425699 -18.436360 1.602401 14.999060 0.377700 -7.125000 0.000000 0.000000 -23.448600 43.246500 1.078500 10.601889 5.934734 1.357083 32.828987 9.205680 40.745200 -83.408210 55.656818 -49.572905 -0.506217 1.363990 -23.932007 6.654615 7.717401 0.718800 7.125000 0.000000 0.000000 24.017800 -23.627800 13.570200 
0.077822 16.448732 0.242740 -0.686821 4.828588 -2.353867 3.945380 6.820562 5.086001 -16.552040 -1.858279 -28.664371 8.159905 14.821930 53.624624 2.786139 -9.517366 -9.979026 1.453200 -7.619800 -21.565000 -4.048642 -7.488447 5.100839 20.501455 -4.926531 -31.763891 -9.026360 -15.619699 57.071660 -2.033709 8.137196 -13.698254 -0.280900 3.408600 -9.418500 3.815117 4.464801 10.747926 8.790211 4.183416 28.927729 -1.683765 4.427076 -9.075860 -1.878724 6.936328 -19.707465 -7.738133 11.679423 5.228181 -2.701500 5.483300 3.233500 -10.042204 -2.650950 -0.818568 -32.963170 -2.049958 22.015695 63.550222 -56.708482 -33.297723 -0.021735 0.428077 -18.264529 1.716602 14.885600 0.400900 -7.125000 0.000000 0.000000 -23.317400 43.154400 1.128200 10.596042 5.923093 1.367701 33.188579 8.937242 40.640472 -82.776315 55.655583 -48.954953 -0.500762 1.342662 -23.557426 6.561269 7.496042 0.687300 7.125000 0.000000 0.000000 24.001100 -23.813700 13.444000 
0.070060 16.447119 0.245663 -0.764491 4.775224 -2.384502 3.937569 6.823914 5.089541 -16.420351 -1.877392 -28.628899 8.157318 14.828579 53.621635 2.770851 -9.379098 -10.037566 1.501500 -7.739800 -21.926400 -4.049755 -7.489092 5.102234 20.634220 -4.846585 -31.684770 -9.012006 -15.593674 57.031549 -2.025501 8.009073 -13.763745 -0.306600 3.559700 -9.841200 3.799174 4.474630 10.703253 8.672670 4.213726 28.925915 -1.688956 4.428354 -9.084716 -1.899664 6.898727 -19.725787 -7.699675 11.615399 5.180573 -2.693400 5.451400 3.216900 -10.020329 -2.660332 -0.836505 -32.693988 -2.388951 21.778330 63.313516 -56.660985 -33.100362 -0.008912 0.418953 -18.164180 1.784740 14.594354 0.407900 -7.125000 0.000000 0.000000 -23.162400 42.904700 1.271700 10.593216 5.907243 1.373953 33.546931 8.680629 40.484846 -82.076346 55.654134 -48.275663 -0.498142 1.335198 -23.280883 6.599534 7.468928 0.690000 7.125000 0.000000 0.000000 24.035700 -23.830500 13.456800 
0.062903 16.447422 0.250502 -0.887300 4.715721 -2.446194 3.930632 6.833774 5.096791 -16.229266 -1.884750 -28.561632 8.157854 14.834783 53.615353 2.776490 -9.409903 -10.007958 1.471400 -7.665300 -21.702100 -4.046155 -7.492248 5.103452 20.804740 -4.765526 -31.537775 -8.995229 -15.554030 56.980999 -2.014223 7.849907 -13.837084 -0.332900 3.708000 -10.256500 3.835306 4.470314 10.669575 8.549215 4.233706 28.939648 -1.713432 4.420274 -9.092966 -1.853745 6.824584 -19.885872 -7.649772 11.539490 5.334092 -2.680700 5.410600 3.271700 -9.995786 -2.655166 -0.858357 -32.402118 -2.793696 21.567383 62.926734 -56.583252 -32.785488 -0.004379 0.439057 -18.054549 1.949481 14.685486 0.448200 -7.125000 0.000000 0.000000 -23.057800 42.988300 1.214600 10.579603 5.907526 1.381766 33.929723 8.471066 40.360839 -81.190954 55.648503 -47.421783 -0.516120 1.338969 -22.925016 6.539387 7.811534 0.723600 7.125000 0.000000 0.000000 23.949000 -23.526700 13.585900 
0.054435 16.450446 0.255542 -0.803154 4.701907 -2.497179 3.907784 6.839101 5.104284 -16.273143 -1.908599 -28.449300 8.151470 14.821073 53.605234 2.746423 -9.202687 -10.073181 1.552100 -7.863200 -22.299300 -4.052544 -7.500368 5.105897 20.747250 -4.714064 -31.419619 -8.979339 -15.534545 56.928590 -2.003673 7.752685 -13.837392 -0.321600 3.645100 -10.080300 3.665618 4.467653 10.637395 8.341574 4.244290 28.968189 -1.628024 4.408528 -9.122746 -1.816014 6.751900 -20.004690 -7.619759 11.457077 5.447743 -2.673200 5.367400 3.309300 -9.962544 -2.647959 -0.881774 -32.160499 -3.191103 21.337662 62.534959 -56.503403 -32.466377 -0.004535 0.466398 -17.877447 2.084680 14.897776 0.486000 -7.125000 0.000000 0.000000 -23.018000 43.173000 1.100700 10.571751 5.908023 1.385006 34.282325 8.239695 40.287189 -80.224998 55.633058 -46.491238 -0.567707 1.338059 -22.496937 6.064082 8.457882 0.743300 7.125000 0.000000 0.000000 23.554000 -22.959200 13.660200 
0.046572 16.457099 0.261187 -0.832785 4.614811 -2.576256 3.889096 6.849334 5.112900 -16.184195 -1.872778 -28.323866 8.139881 14.808686 53.566896 2.732425 -9.100385 -10.081485 1.574300 -7.916500 -22.460800 -4.049899 -7.510394 5.112245 20.806994 -4.628326 -31.232167 -8.957250 -15.491687 56.843528 -2.006890 7.771578 -13.833946 -0.293200 3.481800 -9.623100 3.594816 4.473381 10.632876 8.207495 4.265852 28.976539 -1.611658 4.406980 -9.162851 -1.913382 6.714430 -20.000464 -7.477482 11.380523 5.374127 -2.633400 5.332000 3.273700 -9.926131 -2.664716 -0.901245 -31.865532 -3.535228 21.157711 62.069296 -56.401647 -32.089162 -0.017225 0.488158 -17.812635 2.049410 15.107108 0.484600 -7.125000 0.000000 0.000000 -23.112400 43.339400 1.004800 10.567493 5.884569 1.383205 34.647445 7.973492 40.235356 -79.350953 55.610850 -45.653486 -0.610941 1.326967 -22.109658 5.572946 8.905539 0.732800 7.125000 0.000000 0.000000 23.182300 -22.560100 13.639100 
0.039314 16.460627 0.265320 -0.985438 4.487125 -2.665595 3.876059 6.861952 5.121854 -15.956410 -1.805868 -28.222264 8.125342 14.804321 53.510089 2.734568 -9.081708 -10.068640 1.549200 -7.856300 -22.278300 -4.044348 -7.520311 5.117376 21.011311 -4.545182 -31.049854 -8.928832 -15.438766 56.753061 -1.988494 7.636632 -13.825680 -0.319000 3.630300 -10.038900 3.667053 4.500413 10.645993 8.121760 4.322758 28.976837 -1.680979 4.425874 -9.175125 -1.903765 6.750941 -19.771475 -7.176915 11.278629 4.780532 -2.881000 5.307700 3.398200 -9.886803 -2.713954 -0.917824 -31.520088 -3.885663 21.025336 61.744684 -56.326232 -31.827140 -0.032158 0.513595 -17.807795 2.031976 15.408380 0.490600 -7.125000 0.000000 0.000000 -23.225500 43.588500 0.858400 10.570559 5.837273 1.368730 35.024957 7.730570 40.102413 -78.540192 55.583772 -44.886828 -0.616351 1.322114 -21.856563 5.568241 9.021801 0.745600 7.125000 0.000000 0.000000 23.167500 -22.450100 13.693400 
0.034375 16.464861 0.271469 -1.173403 4.388826 -2.735267 3.868613 6.876441 5.131005 -15.702807 -1.781370 -28.111922 8.106337 14.797420 53.436359 2.740911 -9.115993 -10.004988 1.488600 -7.707800 -21.830100 -4.030651 -7.528925 5.118778 21.241214 -4.514661 -30.875106 -8.892545 -15.380836 56.637664 -1.969100 7.467747 -13.838878 -0.361000 3.859800 -10.682500 3.768504 4.484911 10.613849 8.073297 4.324326 28.977671 -1.742583 4.417347 -9.148553 -1.907241 6.717721 -19.671264 -7.192809 11.184004 4.552074 -2.901000 5.261100 3.313800 -9.862658 -2.739844 -0.933040 -31.240559 -4.198001 20.857489 61.441810 -56.255891 -31.582339 -0.038215 0.526618 -17.752530 2.027169 15.510985 0.492800 -7.125000 0.000000 0.000000 -23.261400 43.669300 0.810600 10.561719 5.816058 1.364971 35.318264 7.541914 39.955793 -77.810352 55.554517 -44.201069 -0.621335 1.315403 -21.636870 5.535649 9.108345 0.751900 7.125000 0.000000 0.000000 23.138600 -22.366300 13.722200 
